<svg width="624" height="149" viewBox="0 0 624 149" fill="none" xmlns="http://www.w3.org/2000/svg">
<path d="M128.774 33.9241H155.251C176.803 33.9241 191.248 47.2134 191.248 70.6442C191.248 93.8694 176.598 107.159 154.94 107.159H128.781V33.9241H128.774ZM142.689 45.119V96.1757H154.615C168.636 96.1757 177.009 87.6985 177.009 70.7564C177.009 53.4965 168.636 45.1253 154.615 45.1253H142.689V45.119Z" fill="#2483B9"/>
<path d="M195.448 77.4487C195.448 59.0357 206.751 47.5291 222.966 47.5291C238.346 47.5291 249.855 58.4123 249.855 77.6607V78.7079H208.627C209.045 90.95 214.488 97.5386 222.96 97.5386C229.868 97.5386 234.68 93.1441 236.563 84.5671H249.225C246.713 98.7977 237.087 107.163 222.854 107.163C206.539 107.163 195.448 95.9678 195.448 77.4487ZM209.157 70.7542H236.47C234.693 61.8593 229.774 57.1532 222.866 57.1532C215.853 57.1532 210.828 61.9653 209.157 70.7542Z" fill="#2483B9"/>
<path d="M254.639 50.3348H268.03V56.9234C272.007 52.1113 277.867 49.1816 284.981 49.1816C297.119 49.1816 305.074 56.8174 305.074 68.43V107.139H291.782V70.5244C291.782 63.0943 287.181 59.1237 280.274 59.1237C275.149 59.1237 270.648 61.5297 268.03 65.1887V107.139H254.639V50.3348Z" fill="#2483B9"/>
<path d="M320.652 94.182V60.1858H307.261V50.3497H320.652V33.925H333.838V50.3497H350.477V60.1858H333.838V91.7822C333.838 95.5471 335.827 97.2239 340.428 97.2239H350.471V107.16H334.256C325.048 107.16 320.652 102.553 320.652 94.182Z" fill="#2483B9"/>
<path d="M353.428 92.7293C353.428 81.5344 365.149 77.7695 377.181 74.1044C386.077 71.3866 390.366 69.2923 390.366 65.1097C390.366 61.1329 386.807 58.5212 380.323 58.5212C372.998 58.5212 368.185 62.7037 366.932 69.7161H354.582C356.259 57.474 366.302 49.1089 380.635 49.1089C395.073 49.1089 403.552 55.9094 403.552 68.5692V107.172H390.366V100.789C386.077 105.495 379.693 108.113 372.474 108.113C360.753 108.113 353.428 102.042 353.428 92.7293ZM375.921 99.1122C381.364 99.1122 387.012 96.9181 390.36 93.147V77.4516C387.954 79.44 384.188 80.6929 379.899 82.1577C372.262 84.6697 366.508 86.6582 366.508 92.3055C366.508 96.7062 370.167 99.1122 375.921 99.1122Z" fill="#2483B9"/>
<path d="M409.501 33.9241H422.892V107.159H409.501V33.9241Z" fill="#2483B9"/>
<path d="M428.974 33.9241H442.159L441.953 77.3388L465.494 50.3488H480.456L460.887 72.5268L481.603 107.159H466.323L452.097 82.5748L441.947 94.0814L442.153 107.159H428.967V33.9241H428.974Z" fill="#2483B9"/>
<path d="M480.155 92.7189C480.155 81.5239 491.875 77.759 503.908 74.0939C512.804 71.3761 517.093 69.2818 517.093 65.0992C517.093 61.1224 513.533 58.5107 507.05 58.5107C499.724 58.5107 494.912 62.6932 493.658 69.7056H481.308C482.985 57.4635 493.029 49.0984 507.361 49.0984C521.8 49.0984 530.279 55.8989 530.279 68.5587V107.161H517.093V100.778C512.804 105.485 506.42 108.103 499.201 108.103C487.48 108.103 480.155 102.031 480.155 92.7189ZM502.655 99.1017C508.097 99.1017 513.745 96.9076 517.093 93.1365V77.4411C514.687 79.4295 510.921 80.6824 506.632 82.1472C498.995 84.6592 493.241 86.6477 493.241 92.295C493.235 96.6957 496.9 99.1017 502.655 99.1017Z" fill="#2483B9"/>
<path d="M536.228 50.3515H549.619V59.3523C553.278 52.9695 559.139 49.4103 566.676 49.4103H568.035V61.6462C566.676 61.4343 565.317 61.3345 563.951 61.3345C557.985 61.3345 552.443 63.7406 549.619 68.3469V107.161H536.228V50.3515Z" fill="#2483B9"/>
<path d="M584.775 94.1811V60.1849H571.378V50.3488H584.769V33.9241H597.955V50.3488H614.594V60.1849H597.955V91.7813C597.955 95.5462 599.943 97.223 604.544 97.223H614.588V107.159H598.372C589.171 107.159 584.775 102.552 584.775 94.1811Z" fill="#2483B9"/>
<path d="M546.018 126.01H550.584V130.088H546.018V126.01Z" fill="#F58220"/>
<path d="M551.901 121.278C551.901 115.417 555.381 111.968 560.495 111.968C564.985 111.968 568.21 114.7 568.796 119.489H564.823C564.368 116.558 562.771 115.03 560.495 115.03C557.826 115.03 556.067 117.181 556.067 121.247C556.067 125.35 557.826 127.464 560.495 127.464C562.84 127.464 564.468 125.836 564.861 122.744H568.802C568.316 127.688 565.123 130.526 560.501 130.526C555.35 130.519 551.901 127.102 551.901 121.278Z" fill="#F58220"/>
<path d="M569.809 121.278C569.809 115.417 573.326 111.968 578.503 111.968C583.71 111.968 587.228 115.417 587.228 121.278C587.228 127.071 583.748 130.526 578.503 130.526C573.295 130.519 569.809 127.071 569.809 121.278ZM583.062 121.241C583.062 117.169 581.272 115.024 578.503 115.024C575.771 115.024 573.975 117.175 573.975 121.241C573.975 125.344 575.765 127.458 578.503 127.458C581.272 127.458 583.062 125.344 583.062 121.241Z" fill="#F58220"/>
<path d="M588.725 112.414H592.89V114.527C594.062 113 595.852 112.052 598.003 112.052C600.316 112.052 602.106 113.062 603.047 114.783C604.319 113.125 606.302 112.052 608.709 112.052C612.356 112.052 614.732 114.428 614.732 118.037V130.075H610.598V118.555C610.598 116.31 609.232 115.138 607.212 115.138C605.778 115.138 604.575 115.787 603.727 116.765C603.789 117.158 603.827 117.576 603.827 118.037V130.075H599.662V118.555C599.662 116.31 598.358 115.138 596.438 115.138C594.942 115.138 593.67 115.855 592.89 116.927V130.075H588.725V112.414Z" fill="#F58220"/>
<path d="M41.241 128.115C39.1897 128.115 37.5229 126.449 37.5229 124.398C37.5229 122.347 39.1897 120.68 41.241 120.68C43.2924 120.68 44.9591 122.347 44.9591 124.398C44.9591 126.449 43.2924 128.115 41.241 128.115ZM41.241 118.88C38.1931 118.88 35.7222 121.35 35.7222 124.398C35.7222 127.445 38.1931 129.916 41.241 129.916C44.2889 129.916 46.7598 127.445 46.7598 124.398C46.754 121.35 44.2831 118.88 41.241 118.88Z" fill="#2483B9"/>
<path d="M82.4016 124.387C82.4016 122.336 84.0683 120.67 86.1197 120.67C88.171 120.67 89.8377 122.336 89.8377 124.387C89.8377 126.438 88.171 128.105 86.1197 128.105C84.0683 128.105 82.4016 126.438 82.4016 124.387ZM80.6008 124.387C80.6008 127.435 83.0718 129.905 86.1197 129.905C89.1676 129.905 91.6385 127.435 91.6385 124.387C91.6385 121.34 89.1676 118.87 86.1197 118.87C83.0718 118.87 80.6008 121.34 80.6008 124.387Z" fill="#2483B9"/>
<path d="M39.921 104.849C40.515 105.984 41.1205 107.102 41.7261 108.209C41.8775 107.457 42.1629 106.304 42.553 104.849H39.921Z" fill="#2483B9"/>
<path d="M39.921 104.849C40.515 105.984 41.1205 107.102 41.7261 108.209C41.8775 107.457 42.1629 106.304 42.553 104.849H39.921Z" fill="#2483B9"/>
<path d="M51.4836 78.2416C50.7189 80.0452 49.9541 81.9771 49.2128 83.9674V78.2416H51.4836Z" fill="#2483B9"/>
<path d="M29.7385 51.7592V61.9025H24.4123C23.7472 58.4319 23.2688 55.0372 23.0005 51.7592H29.7385Z" fill="#2483B9"/>
<path d="M29.7248 78.2416V81.386C29.358 80.3379 29.0086 79.2898 28.665 78.2416H29.7248Z" fill="#2483B9"/>
<path d="M29.7526 65.2914V75.7155H27.8936C26.8213 72.2136 25.8947 68.7292 25.1312 65.2914H29.7526Z" fill="#2483B9"/>
<path d="M46.1998 51.7592H32.8951V61.8919H46.1998V51.7592Z" fill="#2483B9"/>
<path d="M46.1998 78.2416H32.8951V88.1238H46.1998V78.2416Z" fill="#2483B9"/>
<path d="M46.1896 90.9216V92.6871C45.0707 96.1074 44.08 99.3704 43.3049 102.074H38.4679C36.6555 98.4556 34.9421 94.7206 33.3628 90.9216H46.1896Z" fill="#2483B9"/>
<path d="M46.1998 65.2914H32.8951V75.7155H46.1998V65.2914Z" fill="#2483B9"/>
<path d="M62.0104 51.7592H49.2128V61.8919H62.0104V51.7592Z" fill="#2483B9"/>
<path d="M62.0104 65.2914V65.4779C59.2831 66.0314 56.9753 67.7562 55.6466 70.1044V70.1102C54.6675 71.5436 53.6418 73.478 52.6045 75.7214H49.2128V65.2914H62.0104Z" fill="#2483B9"/>
<path d="M104.606 46.949H22.771C22.6603 40.3315 23.5226 34.3198 25.6084 29.3393C26.6512 26.2402 28.638 23.5839 31.2131 21.7024C33.8 19.8208 36.9869 18.7082 40.4302 18.7082C42.0965 18.7082 43.7103 18.9703 45.231 19.4596C50.393 20.9567 53.4459 26.1412 63.5135 26.1995H63.6825C73.7968 26.1412 76.8555 20.9567 82.0583 19.4596C83.5673 18.9703 85.1928 18.7082 86.8707 18.7082C90.3315 18.7082 93.5184 19.8208 96.1227 21.7024C98.7095 23.5839 100.708 26.2402 101.751 29.3393C103.842 34.3198 104.716 40.3373 104.606 46.949Z" fill="#F58220"/>
<path d="M84.8102 104.849C85.2003 106.304 85.4856 107.457 85.637 108.209C86.2484 107.102 86.854 105.984 87.4422 104.849H84.8102Z" fill="#2483B9"/>
<path d="M84.8102 104.849C85.2003 106.304 85.4856 107.457 85.637 108.209C86.2484 107.102 86.854 105.984 87.4422 104.849H84.8102Z" fill="#2483B9"/>
<path d="M75.8303 78.2416C76.595 80.0452 77.3598 81.9771 78.1011 83.9674V78.2416H75.8303Z" fill="#2483B9"/>
<path d="M97.615 51.7592V61.9025H102.941C103.606 58.4319 104.085 55.0372 104.353 51.7592H97.615Z" fill="#2483B9"/>
<path d="M97.615 78.2416V81.386C97.9818 80.3379 98.3312 79.2898 98.6748 78.2416H97.615Z" fill="#2483B9"/>
<path d="M97.615 65.2914V75.7155H99.474C100.546 72.2136 101.473 68.7292 102.236 65.2914H97.615Z" fill="#2483B9"/>
<path d="M94.4355 51.7592H81.1309V61.8919H94.4355V51.7592Z" fill="#2483B9"/>
<path d="M94.4355 78.2416H81.1309V88.1238H94.4355V78.2416Z" fill="#2483B9"/>
<path d="M81.1309 90.9216V92.6871C82.2498 96.1074 83.2405 99.3704 84.0156 102.074H88.8526C90.665 98.4556 92.3783 94.7206 93.9577 90.9216H81.1309Z" fill="#2483B9"/>
<path d="M94.4355 65.2914H81.1309V75.7155H94.4355V65.2914Z" fill="#2483B9"/>
<path d="M78.1307 51.7592H65.333V61.8919H78.1307V51.7592Z" fill="#2483B9"/>
<path d="M65.333 65.2914V65.4779C68.0604 66.0314 70.3681 67.7562 71.6969 70.1044L71.7027 70.1102C72.6818 71.5436 73.7074 73.478 74.7389 75.7214H78.1307V65.2914H65.333Z" fill="#2483B9"/>
</svg>
