<svg width="200" height="272" viewBox="0 0 200 272" fill="none" xmlns="http://www.w3.org/2000/svg">
<path d="M45.1566 267.187C40.1443 267.187 36.0718 263.116 36.0718 258.105C36.0718 253.095 40.1443 249.024 45.1566 249.024C50.1689 249.024 54.2413 253.095 54.2413 258.105C54.2413 263.116 50.1689 267.187 45.1566 267.187ZM45.1566 244.625C37.7094 244.625 31.6719 250.661 31.6719 258.105C31.6719 265.55 37.7094 271.586 45.1566 271.586C52.6038 271.586 58.6413 265.55 58.6413 258.105C58.6271 250.661 52.5896 244.625 45.1566 244.625Z" fill="#2483B9"/>
<path d="M145.662 258.105C145.662 253.095 149.735 249.024 154.747 249.024C159.759 249.024 163.832 253.095 163.832 258.105C163.832 263.116 159.759 267.187 154.747 267.187C149.735 267.187 145.662 263.116 145.662 258.105ZM141.262 258.105C141.262 265.55 147.3 271.586 154.747 271.586C162.194 271.586 168.231 265.55 168.231 258.105C168.231 250.661 162.194 244.625 154.747 244.625C147.3 244.625 141.262 250.661 141.262 258.105Z" fill="#2483B9"/>
<path d="M41.8982 210.403C43.3494 213.177 44.8291 215.908 46.3088 218.61C46.6787 216.775 47.3759 213.959 48.3291 210.403H41.8982Z" fill="#2483B9"/>
<path d="M41.8982 210.403C43.3494 213.177 44.8291 215.908 46.3088 218.61C46.6787 216.775 47.3759 213.959 48.3291 210.403H41.8982Z" fill="#2483B9"/>
<path d="M70.2344 145.422C68.3659 149.828 66.4974 154.548 64.6859 159.41V145.422H70.2344Z" fill="#2483B9"/>
<path d="M17.0274 80.7634V105.543H4.01326C2.38827 97.0649 1.21942 88.7716 0.563721 80.7634H17.0274Z" fill="#2483B9"/>
<path d="M17.028 145.395V153.075C16.1317 150.515 15.278 147.955 14.4386 145.395H17.028Z" fill="#2483B9"/>
<path d="M17.0744 113.804V139.297H12.5273C9.9045 130.733 7.63807 122.211 5.77075 113.804H17.0744Z" fill="#2483B9"/>
<path d="M57.3093 80.7634H24.8008V105.518H57.3093V80.7634Z" fill="#2483B9"/>
<path d="M57.3093 145.422H24.8008V169.564H57.3093V145.422Z" fill="#2483B9"/>
<path d="M57.2958 176.37V180.683C54.5618 189.038 52.1411 197.01 50.2473 203.615H38.4286C34.0001 194.775 29.8137 185.651 25.9548 176.37H57.2958Z" fill="#2483B9"/>
<path d="M57.3093 113.804H24.8008V139.27H57.3093V113.804Z" fill="#2483B9"/>
<path d="M95.9556 80.7634H64.6859V105.518H95.9556V80.7634Z" fill="#2483B9"/>
<path d="M95.9556 113.804V114.26C89.2916 115.612 83.6528 119.825 80.4062 125.562V125.576C78.014 129.078 75.5079 133.804 72.9732 139.284H64.6859V113.804H95.9556Z" fill="#2483B9"/>
<path d="M199.977 68.9918H0.0229682C-0.24751 52.8254 1.85937 38.139 6.95574 25.9715C9.50393 18.4007 14.3583 11.9113 20.6505 7.31472C26.9711 2.71812 34.758 0 43.1713 0C47.2427 0 51.186 0.640395 54.9015 1.8358C67.5143 5.49316 74.9738 18.1587 99.5731 18.301H99.9859C124.699 18.1587 132.173 5.49316 144.885 1.8358C148.572 0.640395 152.544 0 156.644 0C165.1 0 172.887 2.71812 179.25 7.31472C185.571 11.9113 190.454 18.4007 193.002 25.9715C198.112 38.139 200.248 52.8396 199.977 68.9918Z" fill="#F58220"/>
<path d="M151.596 210.403C152.549 213.959 153.246 216.775 153.616 218.61C155.11 215.908 156.59 213.177 158.027 210.403H151.596Z" fill="#2483B9"/>
<path d="M151.596 210.403C152.549 213.959 153.246 216.775 153.616 218.61C155.11 215.908 156.59 213.177 158.027 210.403H151.596Z" fill="#2483B9"/>
<path d="M129.747 145.422C131.616 149.828 133.484 154.548 135.296 159.41V145.422H129.747Z" fill="#2483B9"/>
<path d="M182.946 80.7634V105.543H195.96C197.585 97.0649 198.754 88.7716 199.409 80.7634H182.946Z" fill="#2483B9"/>
<path d="M182.946 145.422V153.103C183.842 150.543 184.696 147.983 185.535 145.422H182.946Z" fill="#2483B9"/>
<path d="M182.946 113.804V139.297H187.493C190.115 130.733 192.382 122.211 194.249 113.804H182.946Z" fill="#2483B9"/>
<path d="M175.113 80.7634H142.604V105.518H175.113V80.7634Z" fill="#2483B9"/>
<path d="M175.113 145.396H142.604V169.538H175.113V145.396Z" fill="#2483B9"/>
<path d="M142.604 176.37V180.683C145.338 189.038 147.759 197.01 149.653 203.615H161.471C165.9 194.775 170.086 185.651 173.945 176.37H142.604Z" fill="#2483B9"/>
<path d="M175.113 113.804H142.604V139.27H175.113V113.804Z" fill="#2483B9"/>
<path d="M135.223 80.7634H103.954V105.518H135.223V80.7634Z" fill="#2483B9"/>
<path d="M103.954 113.804V114.26C110.618 115.612 116.256 119.825 119.503 125.562L119.517 125.576C121.909 129.078 124.416 133.804 126.936 139.284H135.223V113.804H103.954Z" fill="#2483B9"/>
</svg>
